<svg xmlns="http://www.w3.org/2000/svg" viewBox="0 0 1920 1920">
  <rect fill="#4ba500" width="1920" height="1920"/>
  <g transform="translate(-350.1 -181.7) scale(6.55)">
    <path fill="#2f2f2f" d="m234.69 30.001c11.948 10.471 28.542 28.879 39.973 40.809l66.642 69.078c0.13375 21.771 0.15808 43.543 0.0669 65.314-5.0772 5.7564-10.866 11.739-16.332 17.14-30.938 30.587-60.544 63.544-92.144 93.38-3.4477 2.884-17.743 1.7548-22.887 1.7415l-39.9-0.05288c-37.59-36.813-74.723-74.085-111.4-111.81l0.28579-41.959c0.03647-7.0996 0.36483-18.44-0.42562-25.143 34.47-36.414 71.695-72.067 105.84-108.5z"/>
    <path fill="#fdfdfc" d="m178.33 48.635 42.521 0.00246c4.7124 4.3001 9.9477 9.4832 14.259 14.155 26.584 28.814 56.901 55.326 82.525 84.934l0.09122 47.629c-14.757 16.488-31.728 32.172-47.112 48.192l-35.802 37.172c-2.1221 2.2108-10.288 11.423-12.489 11.994l-44.23 0.07052c-5.3144-6.4386-15.53-15.87-21.817-22.194l-46.796-47.144c-8.5978-8.7845-19.822-19.904-27.368-29.298-0.23714-15.168-0.13986-30.633-0.18239-45.824 16.132-17.79 32.786-33.89 49.611-50.845 15.809-16.073 31.412-32.355 46.789-48.844z"/>
    <path fill="#2f2f2f" d="m153.49 110.05 92.776 0.06444c0.44997 10.933 0.18851 23.702 0.24322 34.777l-74.115 0.12041 0.04865 9.1025c24.109 0.48095 49.623 0.14838 73.884 0.21163l0.15812 34.911c-11.893 0.19579-24.255 0.07479-36.179 0.10336-12.21-0.02432-24.413 0.02494-36.623 0.14714-0.09122 4.7154 0.04257 9.7628 0.07904 14.504l72.364 0.50407 0.17026 21.939c-30.883 0.38491-62.295 0.19882-93.202 0.14107z"/>
  </g>
</svg>
